<?xml version="1.0" ?><!DOCTYPE svg  PUBLIC '-//W3C//DTD SVG 1.1//EN'  'http://www.w3.org/Graphics/SVG/1.1/DTD/svg11.dtd'><svg height="512px" style="enable-background:new 0 0 512 512;" version="1.1" viewBox="0 0 512 512" width="512px" xml:space="preserve" xmlns="http://www.w3.org/2000/svg" xmlns:xlink="http://www.w3.org/1999/xlink"><g id="social__x2C_media__x2C__vintage__x2C___hike_x2C_"><g><path d="M256.101,495.998c126.469,0,230.168-97.885,239.195-222.145    H16.704C25.829,398.113,129.532,495.998,256.101,495.998L256.101,495.998z M495.296,238.149    C486.269,113.988,382.569,16.002,256.101,16.002c-126.568,0-230.271,97.986-239.396,222.146H495.296L495.296,238.149z" style="fill-rule:evenodd;clip-rule:evenodd;fill:#645B4C;"/><path d="M256.101,431.109c96.381,0,175.01-78.729,175.01-175.209    c0-96.179-78.629-175.008-175.01-175.008c-96.481,0-175.01,78.829-175.01,175.008C81.091,352.381,159.619,431.109,256.101,431.109    L256.101,431.109z" style="fill-rule:evenodd;clip-rule:evenodd;fill:#E9D9A8;"/><path d="M24.827,238.149h462.547c0.4,5.917,0.501,11.934,0.501,17.851    c0,6.02-0.101,12.037-0.501,17.854H24.827c-0.4-5.816-0.701-11.834-0.701-17.854C24.126,250.083,24.427,244.066,24.827,238.149    L24.827,238.149z" style="fill-rule:evenodd;clip-rule:evenodd;fill:#E9D9A8;"/><path d="M256.101,412.656c86.251,0,156.456-70.406,156.456-156.756    c0-86.251-70.205-156.454-156.456-156.454S99.444,169.649,99.444,255.9C99.444,342.25,169.85,412.656,256.101,412.656    L256.101,412.656z" style="fill-rule:evenodd;clip-rule:evenodd;fill:#645B4C;"/><path d="M302.137,231.729c-5.718,0.202-9.128,2.409-9.128,9.428    c0,15.947,0,47.439,0,55.662c0,8.424-16.647,10.131-16.647-0.5c0-10.832,0.2-20.459,0.401-36.207    c-7.726-45.131-54.961-29.484-54.961-14.741c0-16.849,0-24.974,0-35.604c-6.42-22.064-24.473-11.735-24.473-11.735    s-1.003,98.287-1.003,108.918c0,10.531,23.973,11.434,23.973-0.701c0-12.037-0.201-29.689-0.104-40.219    c0.305-18.353,31.795-20.759,31.795-1.205c0,13.141,0.601,16.852,0.601,30.291c0,13.338,16.35,21.359,31.09,21.359    c14.746,0,31.192-7.32,31.192-23.768c0-16.551,0-40.819,0-53.254C314.872,233.635,308.252,231.429,302.137,231.729    L302.137,231.729z" style="fill-rule:evenodd;clip-rule:evenodd;fill:#E9D9A8;"/><path d="M302.137,195.625c-13.741,0.501-12.438,13.038-12.438,13.038    s0.705,12.136,13.537,11.734c12.939-0.301,12.438-12.435,12.438-12.435S315.774,195.124,302.137,195.625L302.137,195.625z" style="fill-rule:evenodd;clip-rule:evenodd;fill:#E9D9A8;"/></g></g><g id="Layer_1"/></svg>