<?xml version="1.0" ?><!DOCTYPE svg  PUBLIC '-//W3C//DTD SVG 1.1//EN'  'http://www.w3.org/Graphics/SVG/1.1/DTD/svg11.dtd'><svg height="512px" style="enable-background:new 0 0 512 512;" version="1.1" viewBox="0 0 512 512" width="512px" xml:space="preserve" xmlns="http://www.w3.org/2000/svg" xmlns:xlink="http://www.w3.org/1999/xlink"><g id="social__x2C_media__x2C__vintage__x2C___facebook__x2C_"><g><path d="M256.05,495.946c126.47,0,230.165-97.885,239.197-222.145    H16.753C25.778,398.062,129.48,495.946,256.05,495.946L256.05,495.946z M495.247,238.201    C486.215,113.938,382.52,16.054,256.05,16.054c-126.569,0-230.271,97.884-239.297,222.147H495.247L495.247,238.201z" style="fill-rule:evenodd;clip-rule:evenodd;fill:#1F7189;"/><path d="M256.05,431.059c96.479,0,175.008-78.729,175.008-175.108    c0-96.277-78.528-175.006-175.008-175.006c-96.382,0-175.01,78.729-175.01,175.006C81.04,352.33,159.668,431.059,256.05,431.059    L256.05,431.059z" style="fill-rule:evenodd;clip-rule:evenodd;fill:#E9D9A8;"/><path d="M24.776,238.201h462.545c0.4,5.815,0.601,11.834,0.601,17.749    c0,6.021-0.2,12.032-0.601,17.852H24.776c-0.401-5.819-0.702-11.831-0.702-17.852C24.074,250.035,24.375,244.017,24.776,238.201    L24.776,238.201z" style="fill-rule:evenodd;clip-rule:evenodd;fill:#E9D9A8;"/><path d="M256.05,412.608c86.252,0,156.558-70.409,156.558-156.658    c0-86.25-70.306-156.556-156.558-156.556c-86.251,0-156.656,70.306-156.656,156.556    C99.394,342.199,169.799,412.608,256.05,412.608L256.05,412.608z" style="fill-rule:evenodd;clip-rule:evenodd;fill:#1F7189;"/><path d="M268.783,212.927c0-6.119,3.013-8.627,5.818-8.627    c2.813,0,18.658,0,18.658,0v-27.579h-25.278c-26.976,0-33.796,21.664-33.796,34.6v12.238h-15.444v20.959v9.93h15.444    c0,37.21,0,80.835,0,80.835h34.598c0,0,0-43.625,0-80.835h21.063l1.002-12.034l1.907-18.854h-23.972V212.927z" style="fill-rule:evenodd;clip-rule:evenodd;fill:#E9D9A8;"/></g></g><g id="Layer_1"/></svg>