<?xml version="1.0" ?><!DOCTYPE svg  PUBLIC '-//W3C//DTD SVG 1.1//EN'  'http://www.w3.org/Graphics/SVG/1.1/DTD/svg11.dtd'><svg height="512px" style="enable-background:new 0 0 512 512;" version="1.1" viewBox="0 0 512 512" width="512px" xml:space="preserve" xmlns="http://www.w3.org/2000/svg" xmlns:xlink="http://www.w3.org/1999/xlink"><g id="social__x2C_media__x2C__vintage__x2C___google_plus__x2C_"><g><path d="M256.104,495.998c126.467,0,230.065-97.885,239.193-222.145    H16.703C25.832,398.113,129.431,495.998,256.104,495.998L256.104,495.998z M495.297,238.248    C486.169,113.987,382.57,16.002,256.104,16.002c-126.673,0-230.271,97.984-239.4,222.245H495.297L495.297,238.248z" style="fill-rule:evenodd;clip-rule:evenodd;fill:#C95B5E;"/><path d="M256.104,431.109c96.379,0,175.004-78.729,175.004-175.109    c0-96.281-78.625-175.11-175.004-175.11c-96.481,0-175.01,78.829-175.01,175.11C81.094,352.381,159.622,431.109,256.104,431.109    L256.104,431.109z" style="fill-rule:evenodd;clip-rule:evenodd;fill:#E9D9A8;"/><path d="M24.83,238.248h462.541    c0.408,5.818,0.505,11.837,0.505,17.752c0,6.02-0.097,12.033-0.505,17.854H24.83c-0.401-5.82-0.705-11.834-0.705-17.854    C24.125,250.084,24.429,244.066,24.83,238.248L24.83,238.248z" style="fill-rule:evenodd;clip-rule:evenodd;fill:#E9D9A8;"/><path d="M256.104,412.656c86.249,0,156.457-70.406,156.457-156.656    c0-86.351-70.208-156.556-156.457-156.556C169.85,99.444,99.447,169.649,99.447,256C99.447,342.25,169.85,412.656,256.104,412.656    L256.104,412.656z" style="fill-rule:evenodd;clip-rule:evenodd;fill:#C95B5E;"/><path d="M272.15,245.268c-11.333,0.201-22.667,0.201-34,0.201    c-3.31,0-6.62-0.201-9.729,0c-0.701,0-1.707,0.3-1.707,0.705c-0.097,6.517-0.097,13.737-0.097,19.456c9.325,0,18.354,0,27.679,0    c-0.2,0-0.501,2.91-0.901,3.811c-4.216,12.637-17.252,19.057-31.29,16.748c-17.452-2.91-28.184-18.754-24.974-36.203    c0.301-2.408,1.202-4.716,2.004-7.021c5.818-12.539,20.061-20.261,34.103-17.051c5.014,1.102,9.426,3.41,13.036,6.72    c5.113-5.114,10.03-9.93,15.242-15.244c-0.297-0.2-0.898-0.701-1.202-1.102c-12.337-10.331-26.378-14.142-42.12-11.537    c-22.77,3.71-39.115,21.563-42.626,42.526c-1.606,8.824-1.002,18.253,2.505,27.478c8.728,22.064,30.993,35.705,54.86,32.996    c11.638-1.301,22.065-5.414,30.09-14.041c12.037-12.836,15.147-28.18,13.24-45.131    C275.861,245.769,274.756,245.268,272.15,245.268L272.15,245.268z" style="fill-rule:evenodd;clip-rule:evenodd;fill:#E9D9A8;"/><path d="M318.685,243.865c0,0,0,2.409,0,2.308    C318.685,245.268,318.685,244.467,318.685,243.865c0-4.412,0.905-8.724,0.802-13.14c0-0.702-0.705-2.004-1.002-2.004    c-3.911-0.1-6.22-0.1-11.935-0.1c0,5.213,0,10.23,0,15.244c0,0.902,0,0,0,0c-6.42,0-12.839,0-18.657,0c0,3.21,0,5.214,0,6.219    c0,3.207,0.704,6.517,0.905,9.726c3.109,0.201,6.219,0.4,9.529,0.4c2.709,0.102,5.01,0,8.223,0c0,6.32,0,12.139,0,17.854    c5.715,0,8.929,0,12.135,0c0-5.918,0-12.436,0-18.154c6.42,0,12.238,0,18.65,0c0-3.209,0-6.418,0-9.826c0-1.105,0-3.009,0-6.219    c-3.206,0-8.721,0-13.634,0C322.699,243.865,321.891,243.865,318.685,243.865L318.685,243.865z" style="fill-rule:evenodd;clip-rule:evenodd;fill:#E9D9A8;"/></g></g><g id="Layer_1"/></svg>