<?xml version="1.0" ?><!DOCTYPE svg  PUBLIC '-//W3C//DTD SVG 1.1//EN'  'http://www.w3.org/Graphics/SVG/1.1/DTD/svg11.dtd'><svg height="512px" style="enable-background:new 0 0 512 512;" version="1.1" viewBox="0 0 512 512" width="512px" xml:space="preserve" xmlns="http://www.w3.org/2000/svg" xmlns:xlink="http://www.w3.org/1999/xlink"><g id="social__x2C_media__x2C__vintage__x2C___instagram"><g><path d="M256.101,495.946c126.469,0,230.067-97.885,239.195-222.145    H16.704C25.833,398.062,129.432,495.946,256.101,495.946L256.101,495.946z M495.296,238.198    C486.168,113.938,382.569,16.054,256.101,16.054c-126.669,0-230.268,97.884-239.396,222.145H495.296L495.296,238.198z" style="fill-rule:evenodd;clip-rule:evenodd;fill:#D66527;"/><path d="M256.101,431.059c96.381,0,175.006-78.729,175.006-175.108    c0-96.28-78.625-175.01-175.006-175.01c-96.481,0-175.01,78.729-175.01,175.01C81.091,352.33,159.619,431.059,256.101,431.059    L256.101,431.059z" style="fill-rule:evenodd;clip-rule:evenodd;fill:#E9D9A8;"/><path d="M24.827,238.198H487.37    c0.404,5.818,0.505,11.837,0.505,17.752c0,6.021-0.101,12.032-0.505,17.852H24.827c-0.4-5.819-0.701-11.831-0.701-17.852    C24.126,250.035,24.427,244.017,24.827,238.198L24.827,238.198z" style="fill-rule:evenodd;clip-rule:evenodd;fill:#E9D9A8;"/><path d="M256.101,412.608c86.251,0,156.452-70.409,156.452-156.658    c0-86.25-70.201-156.556-156.452-156.556S99.444,169.7,99.444,255.95C99.444,342.199,169.85,412.608,256.101,412.608    L256.101,412.608z" style="fill-rule:evenodd;clip-rule:evenodd;fill:#D66527;"/><path d="M256,207.209c-27.481,0-49.844,22.265-49.844,49.743    c0,27.581,22.362,49.846,49.844,49.846c27.479,0,49.744-22.265,49.744-49.846C305.744,229.474,283.479,207.209,256,207.209    L256,207.209z M256,296.467c-21.764,0-39.416-17.648-39.416-39.515c0-21.76,17.652-39.412,39.416-39.412    c21.761,0,39.417,17.652,39.417,39.412C295.417,278.818,277.761,296.467,256,296.467L256,296.467z" style="fill-rule:evenodd;clip-rule:evenodd;fill:#E9D9A8;"/><path d="M296.719,179.931h-81.438    c-19.96,0-36.907,16.246-36.907,36.406v81.332c0,20.061,16.947,34.399,36.907,34.399h81.438c20.158,0,36.904-14.339,36.904-34.399    v-81.332C333.623,196.177,316.877,179.931,296.719,179.931L296.719,179.931z M324.699,297.669    c0,15.147-12.836,25.375-27.98,25.375h-81.438c-15.043,0-27.278-10.228-27.278-25.375v-81.332    c0-15.144,12.235-27.382,27.278-27.382h81.438c15.145,0,27.98,12.238,27.98,27.382V297.669z" style="fill-rule:evenodd;clip-rule:evenodd;fill:#E9D9A8;"/><path d="M304.842,200.488c-4.412,0-8.022,3.511-8.022,7.923    c0,4.516,3.61,8.026,8.022,8.026s8.023-3.511,8.023-8.026C312.865,203.999,309.254,200.488,304.842,200.488L304.842,200.488z" style="fill-rule:evenodd;clip-rule:evenodd;fill:#E9D9A8;"/></g></g><g id="Layer_1"/></svg>