<?xml version="1.0" ?><!DOCTYPE svg  PUBLIC '-//W3C//DTD SVG 1.1//EN'  'http://www.w3.org/Graphics/SVG/1.1/DTD/svg11.dtd'><svg height="512px" style="enable-background:new 0 0 512 512;" version="1.1" viewBox="0 0 512 512" width="512px" xml:space="preserve" xmlns="http://www.w3.org/2000/svg" xmlns:xlink="http://www.w3.org/1999/xlink"><g id="social__x2C_media__x2C__vintage__x2C___pintrest__x2C_"><g><path d="M256.101,495.998c126.469,0,230.171-97.885,239.195-222.145    H16.704C25.833,398.113,129.532,495.998,256.101,495.998L256.101,495.998z M495.296,238.147    c-9.024-124.16-112.727-222.145-239.195-222.145c-126.568,0-230.268,97.984-239.396,222.145H495.296L495.296,238.147z" style="fill-rule:evenodd;clip-rule:evenodd;fill:#C95B5E;"/><path d="M256.101,431.109c96.481,0,175.01-78.732,175.01-175.209    c0-96.279-78.528-175.008-175.01-175.008S81.091,159.621,81.091,255.9C81.091,352.377,159.619,431.109,256.101,431.109    L256.101,431.109z" style="fill-rule:evenodd;clip-rule:evenodd;fill:#E9D9A8;"/><path d="M24.827,238.147h462.547c0.4,5.919,0.501,11.936,0.501,17.753    c0,6.016-0.101,12.034-0.501,17.954H24.827c-0.4-5.92-0.701-11.938-0.701-17.954C24.126,250.083,24.427,244.066,24.827,238.147    L24.827,238.147z" style="fill-rule:evenodd;clip-rule:evenodd;fill:#E9D9A8;"/><path d="M256.101,412.557c86.251,0,156.456-70.406,156.456-156.657    c0-86.251-70.205-156.456-156.456-156.456S99.444,169.649,99.444,255.9C99.444,342.15,169.85,412.557,256.101,412.557    L256.101,412.557z" style="fill-rule:evenodd;clip-rule:evenodd;fill:#C95B5E;"/><path d="M259.711,177.472c-44.129,0-66.594,30.588-66.594,56.263    c0,4.815,0.501,9.427,1.706,13.539c2.709,9.628,8.424,17.453,17.449,20.964c2.107,1.002,4.114,0,4.616-2.211    c0.5-1.604,1.402-5.516,1.903-7.219c0.701-2.308,0.4-3.109-1.303-5.015c-2.208-2.709-4.012-5.617-5.113-9.427    c-0.604-2.407-1.105-5.216-1.105-8.325c0-22.766,17.652-43.226,46.032-43.226c24.974,0,38.715,14.743,38.715,34.501    c0,5.917-0.601,11.433-1.707,16.749c-3.911,18.153-14.138,31.29-27.879,31.29c-9.729,0-17.052-7.723-14.743-17.449    c1.402-5.316,3.31-10.933,5.014-16.449c1.807-5.716,3.41-11.232,3.41-15.444c0-7.522-4.112-13.539-12.736-13.539    c-9.93,0-17.952,10.029-17.952,23.267c0,2.508,0.2,4.915,0.601,6.72c0.902,4.713,2.309,7.622,2.309,7.622    s-10.231,41.919-11.935,49.245c-3.51,14.643-0.504,32.492-0.2,34.197c0.101,1.104,1.503,1.303,2.204,0.602    c0.902-1.201,12.739-15.344,16.851-29.586c1.002-4.012,6.617-24.873,6.617-24.873c3.109,6.119,12.538,11.332,22.77,11.332    c24.269,0,42.321-17.648,48.237-43.324c1.306-5.716,2.007-12.036,2.007-18.554C318.884,202.243,295.417,177.472,259.711,177.472    L259.711,177.472z" style="fill-rule:evenodd;clip-rule:evenodd;fill:#E9D9A8;"/></g></g><g id="Layer_1"/></svg>