<?xml version="1.0" ?><!DOCTYPE svg  PUBLIC '-//W3C//DTD SVG 1.1//EN'  'http://www.w3.org/Graphics/SVG/1.1/DTD/svg11.dtd'><svg height="512px" style="enable-background:new 0 0 512 512;" version="1.1" viewBox="0 0 512 512" width="512px" xml:space="preserve" xmlns="http://www.w3.org/2000/svg" xmlns:xlink="http://www.w3.org/1999/xlink"><g id="social__x2C_media__x2C__vintage__x2C___twitter__x2C_"><g><path d="M256.101,495.998c126.469,0,230.067-97.885,239.195-222.145    H16.704C25.831,398.113,129.432,495.998,256.101,495.998L256.101,495.998z M495.296,238.147    c-9.128-124.16-112.727-222.145-239.195-222.145c-126.669,0-230.27,97.984-239.396,222.145H495.296L495.296,238.147z" style="fill-rule:evenodd;clip-rule:evenodd;fill:#058E85;"/><path d="M256.101,431.109c96.381,0,175.006-78.729,175.006-175.209    c0-96.281-78.625-175.01-175.006-175.01c-96.479,0-175.008,78.729-175.008,175.01C81.093,352.381,159.621,431.109,256.101,431.109    L256.101,431.109z" style="fill-rule:evenodd;clip-rule:evenodd;fill:#E9D9A8;"/><path d="M24.829,238.147H487.37    c0.404,5.919,0.505,11.934,0.505,17.753c0,6.016-0.101,12.034-0.505,17.954H24.829c-0.402-5.92-0.703-11.938-0.703-17.954    C24.126,250.081,24.427,244.066,24.829,238.147L24.829,238.147z" style="fill-rule:evenodd;clip-rule:evenodd;fill:#E9D9A8;"/><path d="M256.101,412.557c86.251,0,156.456-70.406,156.456-156.657    c0-86.251-70.205-156.456-156.456-156.456S99.444,169.649,99.444,255.9C99.444,342.15,169.85,412.557,256.101,412.557    L256.101,412.557z" style="fill-rule:evenodd;clip-rule:evenodd;fill:#058E85;"/><path d="M330.417,195.424c-6.219,3.711-13.24,6.316-20.558,7.822    c-5.818-6.219-14.242-10.13-23.571-10.13c-17.753,0-32.294,14.242-32.294,31.691c0,2.608,0.502,5.017,1.003,7.321    c-26.878-1.303-50.647-13.938-66.493-33.193c-2.807,4.813-4.512,10.127-4.512,15.945c0,11.132,6.418,20.758,14.943,26.477    c-5.316-0.1-10.832-1.606-14.042-4.011c0,0.2,0,0.3,0,0.501c0,4.011,0.2,7.822,1.604,11.433    c4.012,9.929,12.638,17.453,23.468,19.556c-2.808,0.801-5.717,1.205-8.624,1.205c-2.105,0-4.212-0.303-6.117-0.705    c4.111,12.639,15.945,21.865,29.987,22.166c-11.032,8.527-24.874,13.541-39.918,13.541c-2.707,0-5.215-0.102-7.822-0.402    c14.343,8.926,31.292,14.242,49.445,14.242c50.347,0,81.335-34.902,89.458-71.106c1.403-6.42,2.005-12.839,2.005-19.155    c0-1.406,0-2.809,0-4.115c6.419-4.513,11.837-10.127,16.148-16.446c-5.714,2.508-11.833,4.211-18.453,5.013    C322.795,209.062,328.013,202.946,330.417,195.424L330.417,195.424z" style="fill-rule:evenodd;clip-rule:evenodd;fill:#E9D9A8;"/></g></g><g id="Layer_1"/></svg>